<svg viewBox="0 0 900 600" xmlns="http://www.w3.org/2000/svg">
  <!-- Варіант 1: Темно-синій (класичний інженерний) -->
  <!-- <g id="variant1">
    <rect x="20" y="20" width="250" height="250" rx="50" fill="#1e3a8a"/>
    <text x="145" y="120" 
          font-family="Arial, sans-serif" 
          font-size="90" 
          font-weight="bold" 
          fill="#ffffff" 
          text-anchor="middle">ESP</text>
    <path d="M 50 170 Q 95 150, 140 170 T 230 170" 
          stroke="#60a5fa" 
          stroke-width="10" 
          fill="none" 
          stroke-linecap="round" 
          opacity="0.8"/>
    <path d="M 50 200 Q 95 220, 140 200 T 230 200" 
          stroke="#60a5fa" 
          stroke-width="8" 
          fill="none" 
          stroke-linecap="round" 
          opacity="0.6"/>
    <circle cx="65" cy="170" r="6" fill="#fbbf24"/>
    <circle cx="145" cy="170" r="6" fill="#fbbf24"/>
    <circle cx="225" cy="170" r="6" fill="#fbbf24"/>
    <text x="145" y="310" font-family="Arial, sans-serif" font-size="14" fill="#333" text-anchor="middle" font-weight="bold">Темно-синій + блакитний</text>
  </g> -->
  
  <!-- Варіант 2: Сірий індустріальний -->
  <!-- <g id="variant2">
    <rect x="310" y="20" width="250" height="250" rx="50" fill="#334155"/>
    <text x="435" y="120" 
          font-family="Arial, sans-serif" 
          font-size="90" 
          font-weight="bold" 
          fill="#ffffff" 
          text-anchor="middle">ESP</text>
    <path d="M 340 170 Q 385 150, 430 170 T 520 170" 
          stroke="#94a3b8" 
          stroke-width="10" 
          fill="none" 
          stroke-linecap="round" 
          opacity="0.8"/>
    <path d="M 340 200 Q 385 220, 430 200 T 520 200" 
          stroke="#94a3b8" 
          stroke-width="8" 
          fill="none" 
          stroke-linecap="round" 
          opacity="0.6"/>
    <circle cx="355" cy="170" r="6" fill="#f59e0b"/>
    <circle cx="435" cy="170" r="6" fill="#f59e0b"/>
    <circle cx="515" cy="170" r="6" fill="#f59e0b"/>
    <text x="435" y="310" font-family="Arial, sans-serif" font-size="14" fill="#333" text-anchor="middle" font-weight="bold">Сірий + помаранчевий</text>
  </g> -->
  
  <!-- Варіант 3: Темний технічний -->
  <g id="variant3">
    <rect x="600" y="20" width="250" height="250" rx="50" fill="#0f172a"/>
    <text x="725" y="120" 
          font-family="Arial, sans-serif" 
          font-size="90" 
          font-weight="bold" 
          fill="#ffffff" 
          text-anchor="middle">ESP</text>
    <path d="M 630 170 Q 675 150, 720 170 T 810 170" 
          stroke="#38bdf8" 
          stroke-width="10" 
          fill="none" 
          stroke-linecap="round" 
          opacity="0.8"/>
    <path d="M 630 200 Q 675 220, 720 200 T 810 200" 
          stroke="#38bdf8" 
          stroke-width="8" 
          fill="none" 
          stroke-linecap="round" 
          opacity="0.6"/>
    <circle cx="645" cy="170" r="6" fill="#22d3ee"/>
    <circle cx="725" cy="170" r="6" fill="#22d3ee"/>
    <circle cx="805" cy="170" r="6" fill="#22d3ee"/>
    <text x="725" y="310" font-family="Arial, sans-serif" font-size="14" fill="#333" text-anchor="middle" font-weight="bold">Темний + cyan</text>
  </g>
  
  <!-- Варіант 4: Зелений технологічний -->
  <!-- <g id="variant4">
    <rect x="20" y="340" width="250" height="250" rx="50" fill="#064e3b"/>
    <text x="145" y="440" 
          font-family="Arial, sans-serif" 
          font-size="90" 
          font-weight="bold" 
          fill="#ffffff" 
          text-anchor="middle">ESP</text>
    <path d="M 50 490 Q 95 470, 140 490 T 230 490" 
          stroke="#34d399" 
          stroke-width="10" 
          fill="none" 
          stroke-linecap="round" 
          opacity="0.8"/>
    <path d="M 50 520 Q 95 540, 140 520 T 230 520" 
          stroke="#34d399" 
          stroke-width="8" 
          fill="none" 
          stroke-linecap="round" 
          opacity="0.6"/>
    <circle cx="65" cy="490" r="6" fill="#a7f3d0"/>
    <circle cx="145" cy="490" r="6" fill="#a7f3d0"/>
    <circle cx="225" cy="490" r="6" fill="#a7f3d0"/>
    <text x="145" y="320" font-family="Arial, sans-serif" font-size="14" fill="#333" text-anchor="middle" font-weight="bold">Зелений технологічний</text>
  </g> -->
  
  <!-- Варіант 5: Синій корпоративний -->
  <!-- <g id="variant5">
    <rect x="310" y="340" width="250" height="250" rx="50" fill="#1e40af"/>
    <text x="435" y="440" 
          font-family="Arial, sans-serif" 
          font-size="90" 
          font-weight="bold" 
          fill="#ffffff" 
          text-anchor="middle">ESP</text>
    <path d="M 340 490 Q 385 470, 430 490 T 520 490" 
          stroke="#93c5fd" 
          stroke-width="10" 
          fill="none" 
          stroke-linecap="round" 
          opacity="0.8"/>
    <path d="M 340 520 Q 385 540, 430 520 T 520 520" 
          stroke="#93c5fd" 
          stroke-width="8" 
          fill="none" 
          stroke-linecap="round" 
          opacity="0.6"/>
    <circle cx="355" cy="490" r="6" fill="#fbbf24"/>
    <circle cx="435" cy="490" r="6" fill="#fbbf24"/>
    <circle cx="515" cy="490" r="6" fill="#fbbf24"/>
    <text x="435" y="320" font-family="Arial, sans-serif" font-size="14" fill="#333" text-anchor="middle" font-weight="bold">Синій корпоративний</text>
  </g> -->
  
  <!-- Варіант 6: Фіолетовий сучасний -->
  <!-- <g id="variant6">
    <rect x="600" y="340" width="250" height="250" rx="50" fill="#4c1d95"/>
    <text x="725" y="440" 
          font-family="Arial, sans-serif" 
          font-size="90" 
          font-weight="bold" 
          fill="#ffffff" 
          text-anchor="middle">ESP</text>
    <path d="M 630 490 Q 675 470, 720 490 T 810 490" 
          stroke="#c084fc" 
          stroke-width="10" 
          fill="none" 
          stroke-linecap="round" 
          opacity="0.8"/>
    <path d="M 630 520 Q 675 540, 720 520 T 810 520" 
          stroke="#c084fc" 
          stroke-width="8" 
          fill="none" 
          stroke-linecap="round" 
          opacity="0.6"/>
    <circle cx="645" cy="490" r="6" fill="#fbbf24"/>
    <circle cx="725" cy="490" r="6" fill="#fbbf24"/>
    <circle cx="805" cy="490" r="6" fill="#fbbf24"/>
    <text x="725" y="320" font-family="Arial, sans-serif" font-size="14" fill="#333" text-anchor="middle" font-weight="bold">Фіолетовий сучасний</text>
  </g> -->
</svg>